<?xml version="1.0" encoding="utf-8"?>
<!-- Generator: Adobe Illustrator 21.1.0, SVG Export Plug-In . SVG Version: 6.00 Build 0)  -->
<svg version="1.1" id="图层_1" xmlns="http://www.w3.org/2000/svg" xmlns:xlink="http://www.w3.org/1999/xlink" x="0px" y="0px"
	 viewBox="0 0 28 32" style="enable-background:new 0 0 28 32;" xml:space="preserve">
<style type="text/css">
	.st0{fill:url(#SVGID_1_);}
</style>
<title>Fill 1 Copy 4</title>
<desc>Created with Sketch.</desc>
<g id="h5">
	<g id="侧拉" transform="translate(-223.000000, -535.000000)">
		<g id="Fill-1-Copy-4">
			
				<linearGradient id="SVGID_1_" gradientUnits="userSpaceOnUse" x1="132.2913" y1="634.9042" x2="133.4157" y2="633.6382" gradientTransform="matrix(28 0 0 -32 -3483 20851)">
				<stop  offset="0" style="stop-color:#FF6075"/>
				<stop  offset="1" style="stop-color:#B34267"/>
			</linearGradient>
			<path class="st0" d="M228.4,549.6c-0.1-2-0.2-3.3-1.3-5.4c-0.2,3.7-3,6.6-3.8,10.3c-0.2,0.8-0.3,1.6-0.3,2.4
				c0,3.8,2.2,6.8,7.9,10.1c-2.1-4.5-1-7,0.7-9.4c1.8-2.7,2.2-5.2,2.2-5.2s1.5,1.8,0.9,4.7c2.5-2.8,2.9-7.2,2.6-8.9
				c5.6,3.9,8.1,12.5,4.8,18.7c6.7-3.8,8.8-8.3,8.8-12.4v-0.1c0-6.6-5.4-12.5-6.8-13.4c0.8,1.7,0.9,4.5-0.7,5.8
				c-2.6-9.7-8.9-11.7-9-11.7C235.3,540,231.8,545.5,228.4,549.6z"/>
		</g>
	</g>
</g>
</svg>
