<?xml version="1.0" encoding="utf-8"?>
<!-- Generator: Adobe Illustrator 21.1.0, SVG Export Plug-In . SVG Version: 6.00 Build 0)  -->
<svg version="1.1" id="图层_1" xmlns="http://www.w3.org/2000/svg" xmlns:xlink="http://www.w3.org/1999/xlink" x="0px" y="0px"
	 viewBox="0 0 30 60" style="enable-background:new 0 0 30 60;" xml:space="preserve">
<style type="text/css">
	.st0{fill:#212244;}
	.st1{opacity:0.8;fill:#CBD7F0;enable-background:new    ;}
</style>
<title>右划】</title>
<desc>Created with Sketch.</desc>
<g id="h5">
	<g id="官网h5-未登录-copy" transform="translate(-720.000000, -1173.000000)">
		<g id="右划_x3011_" transform="translate(720.000000, 1173.000000)">
			<g id="右划">
				<path id="Oval-6" class="st0" d="M30,60c0-17.9,0-46.6,0-60C13.4,0,0,13.4,0,30S13.4,60,30,60z"/>
				<path id="Combined-Shape-Copy-9" class="st1" d="M19.3,30.1l-4.9-4.9c-0.4-0.4-0.4-1,0-1.4s1-0.4,1.4,0l5.7,5.7
					c0.4,0.4,0.4,1,0,1.4l-5.7,5.7c-0.4,0.4-1,0.4-1.4,0c-0.4-0.4-0.4-1,0-1.4L19.3,30.1z"/>
			</g>
		</g>
	</g>
</g>
</svg>
