<?xml version="1.0" encoding="utf-8"?>
<!-- Generator: Adobe Illustrator 21.1.0, SVG Export Plug-In . SVG Version: 6.00 Build 0)  -->
<svg version="1.1" id="图层_1" xmlns="http://www.w3.org/2000/svg" xmlns:xlink="http://www.w3.org/1999/xlink" x="0px" y="0px"
	 viewBox="0 0 40 40" style="enable-background:new 0 0 40 40;" xml:space="preserve">
<style type="text/css">
	.st0{fill:#7183A9;}
</style>
<title>weidenglu@2x</title>
<desc>Created with Sketch.</desc>
<g id="h5">
	<g id="官网h5-未登录-copy" transform="translate(-602.000000, -40.000000)">
		<g id="weidenglu" transform="translate(602.000000, 40.000000)">
			<g id="Oval-4">
				<path class="st0" d="M20,40C9,40,0,31,0,20C0,9,9,0,20,0c11,0,20,9,20,20C40,31,31,40,20,40z M20,2C10.1,2,2,10.1,2,20
					c0,9.9,8.1,18,18,18c9.9,0,18-8.1,18-18C38,10.1,29.9,2,20,2z"/>
			</g>
			<g id="Oval">
				<path class="st0" d="M20,20c-3.3,0-6-2.7-6-6s2.7-6,6-6s6,2.7,6,6S23.3,20,20,20z M20,10c-2.2,0-4,1.8-4,4s1.8,4,4,4
					c2.2,0,4-1.8,4-4S22.2,10,20,10z"/>
			</g>
			<g id="Oval-Copy">
				<path class="st0" d="M29,31h-2c0-3.9-3.1-7-7-7c-3.9,0-7,3.1-7,7h-2c0-5,4-9,9-9C25,22,29,26,29,31z"/>
			</g>
		</g>
	</g>
</g>
</svg>
